HIERARCHY
ROOT Hips
{
	OFFSET 0.000000 0.000000 0.000000
	CHANNELS 6 Xposition Yposition Zposition Xrotation Yrotation Zrotation
	JOINT LeftUpLeg_virtual
	{
		OFFSET 0.000000 0.000000 0.000000
		CHANNELS 3 Xrotation Yrotation Zrotation
		JOINT LeftUpLeg
		{
			OFFSET 13.026900 -6.336304 -1.092800
			CHANNELS 3 Xrotation Yrotation Zrotation
			JOINT LeftLeg
			{
				OFFSET 0.524474 -46.096886 9.782700
				CHANNELS 3 Xrotation Yrotation Zrotation
				JOINT LeftFoot
				{
					OFFSET -0.524474 -53.427422 -12.948200
					CHANNELS 3 Xrotation Yrotation Zrotation
					JOINT LeftToeBase
					{
						OFFSET 0.192200 -14.009700 16.364100
						CHANNELS 3 Xrotation Yrotation Zrotation
						JOINT LeftToe_End
						{
							OFFSET -1.784700 -0.561700 9.474800
							CHANNELS 3 Xrotation Yrotation Zrotation
							End Site
							{
								OFFSET 0 0 0
							}
						}
					}
				}
			}
		}
	}
	JOINT RightUpLeg_virtual
	{
		OFFSET 0.000000 0.000000 0.000000
		CHANNELS 3 Xrotation Yrotation Zrotation
		JOINT RightUpLeg
		{
			OFFSET -12.883000 -6.336304 -1.092800
			CHANNELS 3 Xrotation Yrotation Zrotation
			JOINT RightLeg
			{
				OFFSET -0.524587 -46.096825 9.782800
				CHANNELS 3 Xrotation Yrotation Zrotation
				JOINT RightFoot
				{
					OFFSET 0.524587 -53.427383 -12.948300
					CHANNELS 3 Xrotation Yrotation Zrotation
					JOINT RightToeBase
					{
						OFFSET -0.192200 -14.009700 16.364100
						CHANNELS 3 Xrotation Yrotation Zrotation
						JOINT RightToe_End
						{
							OFFSET 1.784700 -0.561700 9.474800
							CHANNELS 3 Xrotation Yrotation Zrotation
							End Site
							{
								OFFSET 0 0 0
							}
						}
					}
				}
			}
		}
	}
	JOINT Spine_virtual
	{
		OFFSET 0.000000 0.000000 0.000000
		CHANNELS 3 Xrotation Yrotation Zrotation
		JOINT Spine
		{
			OFFSET 0.072000 7.257294 -0.789700
			CHANNELS 3 Xrotation Yrotation Zrotation
			JOINT Spine1
			{
				OFFSET 0.000000 12.508769 -0.658067
				CHANNELS 3 Xrotation Yrotation Zrotation
				JOINT Spine1_split
				{
					OFFSET 0.000000 12.508769 -0.658067
					CHANNELS 3 Xrotation Yrotation Zrotation
					JOINT Spine2
					{
						OFFSET 0.000000 12.508769 -0.658067
						CHANNELS 3 Xrotation Yrotation Zrotation
						JOINT Neck_virtual
						{
							OFFSET 0.000000 0.000000 0.000000
							CHANNELS 3 Xrotation Yrotation Zrotation
							JOINT Neck
							{
								OFFSET 0.000000 14.033295 7.520400
								CHANNELS 3 Xrotation Yrotation Zrotation
								JOINT Head
								{
									OFFSET 0.000000 8.198502 5.703100
									CHANNELS 3 Xrotation Yrotation Zrotation
									JOINT HeadTop_End
									{
										OFFSET 0.000000 17.760803 13.332701
										CHANNELS 3 Xrotation Yrotation Zrotation
										End Site
										{
											OFFSET 0 0 0
										}
									}
								}
							}
						}
						JOINT LeftShoulder_virtual
						{
							OFFSET 0.000000 0.000000 0.000000
							CHANNELS 3 Xrotation Yrotation Zrotation
							JOINT LeftShoulder
							{
								OFFSET 6.292450 5.785301 -0.669000
								CHANNELS 3 Xrotation Yrotation Zrotation
								JOINT LeftShoulder_split
								{
									OFFSET 6.292450 5.785301 -0.669000
									CHANNELS 3 Xrotation Yrotation Zrotation
									JOINT LeftArm
									{
										OFFSET 13.907140 -6.093903 1.965100
										CHANNELS 3 Xrotation Yrotation Zrotation
										JOINT LeftForeArm
										{
											OFFSET 34.140198 0.000000 0.000000
											CHANNELS 3 Xrotation Yrotation Zrotation
											JOINT LeftHand
											{
												OFFSET 40.960209 0.000000 0.000000
												CHANNELS 3 Xrotation Yrotation Zrotation
												End Site
												{
													OFFSET 0 0 0
												}
											}
										}
									}
								}
							}
						}
						JOINT RightShoulder_virtual
						{
							OFFSET 0.000000 0.000000 0.000000
							CHANNELS 3 Xrotation Yrotation Zrotation
							JOINT RightShoulder
							{
								OFFSET -6.292450 5.785301 -0.669000
								CHANNELS 3 Xrotation Yrotation Zrotation
								JOINT RightShoulder_split
								{
									OFFSET -6.292450 5.785301 -0.669000
									CHANNELS 3 Xrotation Yrotation Zrotation
									JOINT RightArm
									{
										OFFSET -13.907140 -6.093903 1.965100
										CHANNELS 3 Xrotation Yrotation Zrotation
										JOINT RightForeArm
										{
											OFFSET -34.140198 0.000000 0.000000
											CHANNELS 3 Xrotation Yrotation Zrotation
											JOINT RightHand
											{
												OFFSET -40.960209 0.000000 0.000000
												CHANNELS 3 Xrotation Yrotation Zrotation
												End Site
												{
													OFFSET 0 0 0
												}
											}
										}
									}
								}
							}
						}
					}
				}
			}
		}
	}
}
MOTION
Frames: 9
Frame Time: 0.03333333
5.588921 102.461037 -8.716351 0.000000 0.000000 0.000000 -2.105557 -65.246557 -0.268220 -43.625624 22.882993 39.713776 53.755945 4.942791 0.695658 5.278912 4.371571 -6.324261 -1.311308 0.933341 -3.132173 0.000000 0.000000 0.000000 -0.113786 -63.464882 1.404532 -26.986429 -22.058933 -31.338916 35.856355 3.902308 0.137037 -8.236011 -1.849261 14.742012 -2.420846 1.182510 0.625616 0.000000 0.000000 0.000000 -0.340795 -62.226903 0.306900 8.094182 1.239600 -5.830237 2.264545 0.915313 -2.619446 1.936637 2.843926 -1.085005 0.000000 0.000000 0.000000 2.458477 -0.100946 -2.725575 0.334241 0.751709 1.966719 -0.052111 44.037027 -7.115513 0.000000 0.000000 0.000000 3.223695 0.402026 -2.537353 9.833101 9.836695 1.910493 -1.068427 -1.650872 4.692384 6.951822 -5.904852 -60.447659 -19.218040 -44.015914 -10.375471 0.000000 0.000000 0.000000 3.002867 0.299362 -3.103108 0.718906 2.303646 2.030243 3.765605 2.490358 1.397801 19.240672 20.421408 55.852731 -3.207428 45.000356 2.737856 0.000000 0.000000 0.000000 
5.231215 101.805710 -8.055157 0.000000 0.000000 0.000000 1.201630 -68.877021 3.195894 -42.899185 19.175457 36.171709 52.144765 2.826635 1.960479 4.159623 0.296946 -9.622961 -1.631095 0.642339 -1.775100 0.000000 0.000000 0.000000 3.179809 -67.962602 4.953719 -28.368158 -19.605976 -30.612430 35.244965 5.160891 -0.013582 -8.813873 -0.354445 15.912293 -1.185647 1.463536 -0.097213 0.000000 0.000000 0.000000 2.349624 -67.214444 3.388311 8.207468 1.575946 -7.138036 1.958253 1.555338 -3.308964 1.083922 1.689884 -0.097844 0.000000 0.000000 0.000000 2.321493 0.377729 -3.388056 0.648281 1.179533 1.716680 -0.253378 47.504802 -6.864993 0.000000 0.000000 0.000000 2.822496 0.763205 -3.246787 8.480837 9.088894 -0.506965 -0.071887 0.004031 4.914378 -1.409863 0.778799 -56.231797 -13.752744 -41.064436 -6.100253 0.000000 0.000000 0.000000 2.494044 0.653262 -3.658061 0.304254 1.921266 2.062385 3.088318 3.747142 1.717766 17.750137 18.543706 58.463230 -4.339629 37.248262 3.333014 0.000000 0.000000 0.000000 
5.005867 101.079575 -6.970047 0.000000 0.000000 0.000000 6.020694 -71.908348 8.061846 -41.721767 16.225316 32.269027 49.342878 0.509653 2.633372 1.424048 -2.623429 -12.852300 -2.074508 0.296379 -0.361941 0.000000 0.000000 0.000000 7.225352 -71.861274 9.309392 -29.723645 -16.259503 -29.890735 36.055032 6.114210 -0.336253 -9.313152 0.481086 16.436189 -0.578665 1.437553 -0.123472 0.000000 0.000000 0.000000 6.127583 -71.371515 7.359391 8.595586 1.683670 -8.248822 1.952808 2.005777 -3.882353 0.619350 0.941829 0.437230 0.000000 0.000000 0.000000 2.265868 0.776526 -3.965551 0.644511 1.568898 1.594720 -1.223485 50.950821 -6.455598 0.000000 0.000000 0.000000 2.577719 1.058884 -3.864519 7.214426 8.228678 -2.427735 1.052113 1.396211 5.138889 -8.719213 6.576182 -51.936113 -9.870666 -40.584400 -3.514988 0.000000 0.000000 0.000000 2.277394 0.971311 -4.094010 0.021808 1.957033 2.265030 2.965506 4.974668 1.479922 16.426434 15.821805 60.384808 -5.562131 30.773489 4.119155 0.000000 0.000000 0.000000 
4.844103 100.291862 -5.495346 0.000000 0.000000 0.000000 11.197482 -73.961994 13.231431 -40.053387 14.330167 28.704659 46.063694 -1.046794 2.496449 -2.578259 -3.248066 -14.988644 -2.263120 0.091521 0.443640 0.000000 0.000000 0.000000 11.144263 -74.783331 13.575982 -30.836774 -12.998717 -29.610045 37.583215 6.765714 -0.766322 -9.652696 0.850770 16.740978 -0.414012 1.186547 0.392158 0.000000 0.000000 0.000000 9.703612 -74.145146 11.115456 9.274505 1.595377 -8.994814 2.300070 2.236225 -4.247153 0.791965 0.512624 1.069480 0.000000 0.000000 0.000000 2.381856 1.064930 -4.371228 0.231014 1.875465 1.571739 -2.976339 54.058154 -5.844830 0.000000 0.000000 0.000000 2.608004 1.289941 -4.299576 6.136758 7.130231 -4.054938 2.209012 2.041057 5.232167 -14.732233 11.154455 -47.970048 -7.021759 -41.672753 -1.895011 0.000000 0.000000 0.000000 2.418155 1.214303 -4.382061 -0.091572 2.361271 2.640153 3.379315 5.777543 0.904673 15.713878 12.850326 60.908888 -6.891992 26.662907 5.068622 0.000000 0.000000 0.000000 
4.750586 99.567459 -3.636414 0.000000 0.000000 0.000000 15.134864 -75.102083 17.031077 -38.172899 13.246253 26.105888 43.197214 -1.602564 1.688309 -6.340435 -1.812230 -16.107026 -1.663699 0.122032 0.264229 0.000000 0.000000 0.000000 13.883154 -76.570191 16.506880 -31.298502 -10.721414 -30.045336 38.706310 7.233005 -1.202287 -9.896625 1.163149 17.311946 -0.227911 0.865404 1.099691 0.000000 0.000000 0.000000 12.094295 -75.718343 13.630331 10.121768 1.370255 -9.266007 2.935623 2.260861 -4.359159 0.764190 0.626589 1.290281 0.000000 0.000000 0.000000 2.731041 1.209948 -4.536617 -0.479077 2.106461 1.582481 -5.235255 56.481915 -5.142741 0.000000 0.000000 0.000000 2.935497 1.427836 -4.504501 5.286680 5.846510 -5.566441 2.747914 1.431762 5.040645 -19.044328 14.645749 -44.634132 -5.083408 -43.196452 -0.897223 0.000000 0.000000 0.000000 2.875904 1.350375 -4.474694 -0.054246 2.934833 3.243237 4.241517 5.882553 -0.125688 15.548547 9.971903 60.277417 -8.384296 25.514634 6.211471 0.000000 0.000000 0.000000 
4.600950 99.116646 -2.080627 0.000000 0.000000 0.000000 16.512250 -75.367196 18.204665 -36.641619 12.465538 24.688306 41.443535 -1.806309 0.783086 -8.198678 0.488490 -17.069466 -1.050605 0.334028 -0.607427 0.000000 0.000000 0.000000 14.633233 -77.080310 17.180695 -30.887710 -9.879700 -31.083453 38.588926 7.624364 -1.600094 -10.100988 1.567824 18.445976 0.152758 0.591219 1.664916 0.000000 0.000000 0.000000 12.688466 -76.118907 14.308272 10.964480 1.043150 -9.089011 3.738983 2.118147 -4.238481 0.932855 1.019509 1.126552 0.000000 0.000000 0.000000 3.306860 1.202586 -4.450146 -1.375263 2.243449 1.573820 -7.689533 58.136781 -4.457189 0.000000 0.000000 0.000000 3.512839 1.463189 -4.464974 4.652829 4.356030 -7.064117 2.394508 0.261951 4.445703 -22.140736 17.301107 -42.176159 -3.715813 -44.396462 -0.226670 0.000000 0.000000 0.000000 3.587365 1.371930 -4.367337 0.109196 3.457492 3.935467 5.195336 5.469868 -1.171986 15.742954 7.109267 59.059560 -10.113747 26.978786 7.609380 0.000000 0.000000 0.000000 
4.305925 99.034485 -0.664391 0.000000 0.000000 0.000000 15.473645 -74.938896 17.000800 -35.549881 12.059544 24.285383 40.762166 -2.414169 0.193959 -8.316855 2.305137 -18.000559 -1.260440 0.483360 -1.223682 0.000000 0.000000 0.000000 13.663670 -76.533670 15.971001 -29.770080 -10.571765 -32.337531 37.159200 7.939594 -1.916805 -10.140442 2.019276 20.057685 0.437206 0.449042 1.864103 0.000000 0.000000 0.000000 11.936544 -75.485926 13.574624 11.620150 0.676676 -8.576171 4.538290 1.890836 -3.968323 0.833683 1.577857 0.624388 0.000000 0.000000 0.000000 4.042908 1.060812 -4.174576 -2.254489 2.302243 1.537136 -9.982249 58.961437 -3.844507 0.000000 0.000000 0.000000 4.170989 1.401322 -4.245911 4.158925 2.735603 -8.596521 1.308899 -1.129400 4.176773 -24.523279 19.614546 -40.333363 -2.733378 -45.168704 0.207928 0.000000 0.000000 0.000000 4.374040 1.282078 -4.116520 0.394986 3.760869 4.854399 6.019791 4.881381 -1.875809 16.054194 4.406980 58.030366 -11.977146 30.050879 9.209844 0.000000 0.000000 0.000000 
3.927216 99.341125 0.347641 0.000000 0.000000 0.000000 13.660769 -73.896022 15.043394 -34.899398 12.280209 24.483319 40.175784 -3.590261 0.010919 -7.687272 2.987193 -18.642720 -1.791665 0.441583 -1.294200 0.000000 0.000000 0.000000 11.703597 -75.223100 13.817131 -28.363298 -12.410961 -33.514898 34.867426 8.108112 -2.192446 -10.095625 2.411090 21.791676 0.233220 0.441598 1.707212 0.000000 0.000000 0.000000 11.317401 -74.182466 12.837997 12.050557 0.299090 -7.915778 5.178321 1.638340 -3.673382 0.570444 2.236467 -0.140481 0.000000 0.000000 0.000000 4.752425 0.842093 -3.821601 -2.920665 2.161865 1.591652 -11.886396 58.957831 -3.211553 0.000000 0.000000 0.000000 4.717510 1.274424 -3.933235 3.734512 1.102462 -10.073734 0.138141 -2.321113 4.571037 -27.111734 21.663530 -38.872092 -1.824501 -45.596328 0.564943 0.000000 0.000000 0.000000 5.060481 1.114804 -3.811981 0.771938 3.850269 5.993154 6.682360 4.712652 -2.051012 16.382033 1.907722 57.799328 -13.845330 33.589566 10.924473 0.000000 0.000000 0.000000 
3.429091 99.924545 0.719669 0.000000 0.000000 0.000000 11.829457 -72.260990 13.152316 -34.762275 13.072307 24.796206 39.042703 -5.329598 0.243636 -7.102584 2.428219 -19.086402 -2.182957 0.250755 -0.888093 0.000000 0.000000 0.000000 9.609403 -73.404972 11.762506 -27.142062 -14.797567 -34.302774 32.391615 7.906808 -2.395402 -10.042445 2.483085 22.994148 -0.390688 0.519204 1.355506 0.000000 0.000000 0.000000 11.056195 -72.232625 12.359529 12.306064 -0.078112 -7.257925 5.593677 1.402732 -3.449345 0.647830 2.651799 -0.543453 0.000000 0.000000 0.000000 5.259604 0.593016 -3.495624 -3.364948 1.769319 1.841683 -13.342671 58.184756 -2.429484 0.000000 0.000000 0.000000 5.037577 1.103325 -3.619981 3.351064 -0.394381 -11.305454 -0.817337 -3.310946 5.095335 -30.115793 23.668917 -37.528676 -0.925686 -45.881198 0.804453 0.000000 0.000000 0.000000 5.523444 0.876675 -3.574468 1.223765 3.784061 7.194926 7.090447 5.220122 -1.712056 16.680859 -0.287748 58.382367 -15.456880 36.567402 12.503547 0.000000 0.000000 0.000000 
